<mxfile host="app.diagrams.net" modified="2024-06-24T10:21:31.272Z" agent="Mozilla/5.0 (Windows NT 10.0; Win64; x64) AppleWebKit/537.36 (KHTML, like Gecko) Chrome/126.0.0.0 Safari/537.36" etag="Sgr2jEOTuSYAv7AxwzJT" version="24.6.1" type="device">
  <diagram name="Page-1" id="lG8De2kVz9xpSGzBGEht">
    <mxGraphModel dx="273" dy="269" grid="1" gridSize="10" guides="1" tooltips="1" connect="1" arrows="1" fold="1" page="1" pageScale="1" pageWidth="850" pageHeight="1100" math="0" shadow="0">
      <root>
        <mxCell id="0" />
        <mxCell id="1" parent="0" />
        <mxCell id="e1xdWEfrCJZq1pd0oHmg-14" value="" style="rounded=0;whiteSpace=wrap;html=1;fillColor=#d5e8d4;strokeColor=#82b366;" parent="1" vertex="1">
          <mxGeometry x="319" y="110" width="630" height="350" as="geometry" />
        </mxCell>
        <mxCell id="e1xdWEfrCJZq1pd0oHmg-40" style="edgeStyle=orthogonalEdgeStyle;rounded=0;orthogonalLoop=1;jettySize=auto;html=1;exitX=1;exitY=0.25;exitDx=0;exitDy=0;entryX=0;entryY=0.5;entryDx=0;entryDy=0;" parent="1" source="e1xdWEfrCJZq1pd0oHmg-15" target="e1xdWEfrCJZq1pd0oHmg-23" edge="1">
          <mxGeometry relative="1" as="geometry" />
        </mxCell>
        <mxCell id="e1xdWEfrCJZq1pd0oHmg-42" style="edgeStyle=orthogonalEdgeStyle;rounded=0;orthogonalLoop=1;jettySize=auto;html=1;exitX=1;exitY=0.75;exitDx=0;exitDy=0;entryX=0;entryY=0.5;entryDx=0;entryDy=0;" parent="1" source="e1xdWEfrCJZq1pd0oHmg-15" target="e1xdWEfrCJZq1pd0oHmg-41" edge="1">
          <mxGeometry relative="1" as="geometry" />
        </mxCell>
        <mxCell id="e1xdWEfrCJZq1pd0oHmg-15" value="&lt;font style=&quot;font-size: 16px;&quot;&gt;RGBD Buffer&lt;/font&gt;" style="rounded=1;whiteSpace=wrap;html=1;fillColor=#dae8fc;strokeColor=#6c8ebf;fontFamily=Times New Roman;fontSize=16;" parent="1" vertex="1">
          <mxGeometry x="350" y="120" width="110" height="330" as="geometry" />
        </mxCell>
        <mxCell id="e1xdWEfrCJZq1pd0oHmg-20" style="edgeStyle=orthogonalEdgeStyle;rounded=0;orthogonalLoop=1;jettySize=auto;html=1;exitX=0;exitY=0.5;exitDx=0;exitDy=0;exitPerimeter=0;" parent="1" source="e1xdWEfrCJZq1pd0oHmg-89" target="e1xdWEfrCJZq1pd0oHmg-15" edge="1">
          <mxGeometry relative="1" as="geometry">
            <mxPoint x="278" y="285" as="sourcePoint" />
          </mxGeometry>
        </mxCell>
        <mxCell id="e1xdWEfrCJZq1pd0oHmg-21" value="&lt;font style=&quot;font-size: 20px;&quot;&gt;Jetson Nano&lt;/font&gt;" style="text;html=1;align=center;verticalAlign=middle;whiteSpace=wrap;rounded=0;fontFamily=Times New Roman;" parent="1" vertex="1">
          <mxGeometry x="564" y="80" width="140" height="30" as="geometry" />
        </mxCell>
        <mxCell id="e1xdWEfrCJZq1pd0oHmg-27" style="edgeStyle=orthogonalEdgeStyle;rounded=0;orthogonalLoop=1;jettySize=auto;html=1;entryX=0;entryY=0.5;entryDx=0;entryDy=0;" parent="1" source="e1xdWEfrCJZq1pd0oHmg-23" target="e1xdWEfrCJZq1pd0oHmg-26" edge="1">
          <mxGeometry relative="1" as="geometry" />
        </mxCell>
        <mxCell id="e1xdWEfrCJZq1pd0oHmg-23" value="&lt;font style=&quot;font-size: 16px;&quot;&gt;Heightmap&lt;/font&gt;&lt;div style=&quot;font-size: 16px;&quot;&gt;&lt;font style=&quot;font-size: 16px;&quot;&gt;Generator&lt;/font&gt;&lt;/div&gt;" style="shape=parallelogram;perimeter=parallelogramPerimeter;whiteSpace=wrap;html=1;fixedSize=1;fillColor=#fff2cc;strokeColor=#d6b656;fontFamily=Times New Roman;fontSize=16;" parent="1" vertex="1">
          <mxGeometry x="505" y="130" width="120" height="145" as="geometry" />
        </mxCell>
        <mxCell id="e1xdWEfrCJZq1pd0oHmg-66" style="edgeStyle=orthogonalEdgeStyle;rounded=0;orthogonalLoop=1;jettySize=auto;html=1;exitX=0.5;exitY=1;exitDx=0;exitDy=0;entryX=0.074;entryY=0.483;entryDx=0;entryDy=0;entryPerimeter=0;" parent="1" source="e1xdWEfrCJZq1pd0oHmg-26" target="e1xdWEfrCJZq1pd0oHmg-65" edge="1">
          <mxGeometry relative="1" as="geometry">
            <Array as="points">
              <mxPoint x="685" y="330" />
            </Array>
          </mxGeometry>
        </mxCell>
        <mxCell id="e1xdWEfrCJZq1pd0oHmg-26" value="&lt;font style=&quot;font-size: 16px;&quot;&gt;Heightmap&amp;nbsp;&lt;/font&gt;&lt;div style=&quot;font-size: 16px;&quot;&gt;&lt;font style=&quot;font-size: 16px;&quot;&gt;Buffer&lt;/font&gt;&lt;/div&gt;" style="rounded=1;whiteSpace=wrap;html=1;fillColor=#dae8fc;strokeColor=#6c8ebf;fontFamily=Times New Roman;fontSize=16;" parent="1" vertex="1">
          <mxGeometry x="640" y="127.5" width="90" height="150" as="geometry" />
        </mxCell>
        <mxCell id="rOt2xWO_gpcYSJmfYHu1-3" style="edgeStyle=orthogonalEdgeStyle;rounded=0;orthogonalLoop=1;jettySize=auto;html=1;exitX=0.539;exitY=1.002;exitDx=0;exitDy=0;entryX=0.544;entryY=-0.01;entryDx=0;entryDy=0;entryPerimeter=0;exitPerimeter=0;" edge="1" parent="1" source="e1xdWEfrCJZq1pd0oHmg-35" target="e1xdWEfrCJZq1pd0oHmg-65">
          <mxGeometry relative="1" as="geometry">
            <mxPoint x="889.75" y="225.75" as="sourcePoint" />
            <mxPoint x="889" y="295" as="targetPoint" />
            <Array as="points" />
          </mxGeometry>
        </mxCell>
        <mxCell id="rOt2xWO_gpcYSJmfYHu1-9" value="Foot Targets&lt;div&gt;Leg States&lt;/div&gt;" style="edgeLabel;html=1;align=center;verticalAlign=middle;resizable=0;points=[];strokeColor=#d6b656;fontFamily=Times New Roman;fontSize=17;fontColor=default;fillColor=#fff2cc;labelBackgroundColor=none;" vertex="1" connectable="0" parent="rOt2xWO_gpcYSJmfYHu1-3">
          <mxGeometry x="0.0109" relative="1" as="geometry">
            <mxPoint x="51" y="-2" as="offset" />
          </mxGeometry>
        </mxCell>
        <mxCell id="e1xdWEfrCJZq1pd0oHmg-35" value="&lt;font style=&quot;font-size: 16px;&quot;&gt;Gait State Machine&lt;/font&gt;" style="shape=parallelogram;perimeter=parallelogramPerimeter;whiteSpace=wrap;html=1;fixedSize=1;fillColor=#fff2cc;strokeColor=#d6b656;fontFamily=Times New Roman;fontSize=16;" parent="1" vertex="1">
          <mxGeometry x="759" y="130" width="161" height="97" as="geometry" />
        </mxCell>
        <mxCell id="rOt2xWO_gpcYSJmfYHu1-12" style="edgeStyle=orthogonalEdgeStyle;rounded=0;orthogonalLoop=1;jettySize=auto;html=1;exitX=0.94;exitY=0.368;exitDx=0;exitDy=0;entryX=0;entryY=0.75;entryDx=0;entryDy=0;fontFamily=Times New Roman;fontSize=17;fontColor=default;exitPerimeter=0;" edge="1" parent="1" source="e1xdWEfrCJZq1pd0oHmg-41" target="e1xdWEfrCJZq1pd0oHmg-65">
          <mxGeometry relative="1" as="geometry">
            <Array as="points">
              <mxPoint x="604" y="348" />
            </Array>
          </mxGeometry>
        </mxCell>
        <mxCell id="rOt2xWO_gpcYSJmfYHu1-13" value="Pose Data" style="edgeLabel;html=1;align=center;verticalAlign=middle;resizable=0;points=[];strokeColor=#d6b656;fontFamily=Times New Roman;fontSize=17;fontColor=default;fillColor=#fff2cc;labelBackgroundColor=none;" vertex="1" connectable="0" parent="rOt2xWO_gpcYSJmfYHu1-12">
          <mxGeometry x="-0.007" y="1" relative="1" as="geometry">
            <mxPoint x="2" y="13" as="offset" />
          </mxGeometry>
        </mxCell>
        <mxCell id="e1xdWEfrCJZq1pd0oHmg-41" value="&lt;span style=&quot;font-size: 16px;&quot;&gt;ORB SLAM 3&lt;/span&gt;" style="shape=parallelogram;perimeter=parallelogramPerimeter;whiteSpace=wrap;html=1;fixedSize=1;fillColor=#fff2cc;strokeColor=#d6b656;fontFamily=Times New Roman;fontSize=16;" parent="1" vertex="1">
          <mxGeometry x="490" y="295" width="120" height="145" as="geometry" />
        </mxCell>
        <mxCell id="e1xdWEfrCJZq1pd0oHmg-52" value="" style="rounded=0;whiteSpace=wrap;html=1;" parent="1" vertex="1">
          <mxGeometry x="360" y="470" width="240" height="76" as="geometry" />
        </mxCell>
        <mxCell id="e1xdWEfrCJZq1pd0oHmg-57" style="edgeStyle=orthogonalEdgeStyle;rounded=0;orthogonalLoop=1;jettySize=auto;html=1;endArrow=none;endFill=0;dashed=1;dashPattern=1 2;" parent="1" source="e1xdWEfrCJZq1pd0oHmg-55" target="e1xdWEfrCJZq1pd0oHmg-56" edge="1">
          <mxGeometry relative="1" as="geometry" />
        </mxCell>
        <mxCell id="e1xdWEfrCJZq1pd0oHmg-58" value="&lt;font style=&quot;font-size: 16px;&quot;&gt;Leg Servos&lt;/font&gt;" style="edgeLabel;html=1;align=center;verticalAlign=middle;resizable=0;points=[];fontFamily=Times New Roman;fontSize=16;" parent="e1xdWEfrCJZq1pd0oHmg-57" vertex="1" connectable="0">
          <mxGeometry x="0.075" y="1" relative="1" as="geometry">
            <mxPoint x="-3" y="-13" as="offset" />
          </mxGeometry>
        </mxCell>
        <mxCell id="e1xdWEfrCJZq1pd0oHmg-55" value="" style="sketch=0;outlineConnect=0;fontColor=#232F3E;gradientColor=none;strokeColor=#232F3E;fillColor=#ffffff;dashed=0;verticalLabelPosition=bottom;verticalAlign=top;align=center;html=1;fontSize=12;fontStyle=0;aspect=fixed;shape=mxgraph.aws4.resourceIcon;resIcon=mxgraph.aws4.servo;" parent="1" vertex="1">
          <mxGeometry x="375" y="478" width="60" height="60" as="geometry" />
        </mxCell>
        <mxCell id="e1xdWEfrCJZq1pd0oHmg-56" value="" style="sketch=0;outlineConnect=0;fontColor=#232F3E;gradientColor=none;strokeColor=#232F3E;fillColor=#ffffff;dashed=0;verticalLabelPosition=bottom;verticalAlign=top;align=center;html=1;fontSize=12;fontStyle=0;aspect=fixed;shape=mxgraph.aws4.resourceIcon;resIcon=mxgraph.aws4.servo;" parent="1" vertex="1">
          <mxGeometry x="515" y="478" width="60" height="60" as="geometry" />
        </mxCell>
        <mxCell id="rOt2xWO_gpcYSJmfYHu1-2" style="edgeStyle=orthogonalEdgeStyle;rounded=0;orthogonalLoop=1;jettySize=auto;html=1;exitX=0.443;exitY=-0.003;exitDx=0;exitDy=0;exitPerimeter=0;entryX=0.442;entryY=1.006;entryDx=0;entryDy=0;entryPerimeter=0;" edge="1" parent="1" source="e1xdWEfrCJZq1pd0oHmg-65" target="e1xdWEfrCJZq1pd0oHmg-35">
          <mxGeometry relative="1" as="geometry">
            <mxPoint x="840" y="230" as="targetPoint" />
            <Array as="points">
              <mxPoint x="830" y="296" />
            </Array>
          </mxGeometry>
        </mxCell>
        <mxCell id="rOt2xWO_gpcYSJmfYHu1-8" value="&lt;span style=&quot;font-size: 16px;&quot;&gt;Movement&amp;nbsp;&lt;/span&gt;&lt;div style=&quot;font-size: 16px;&quot;&gt;Command&lt;/div&gt;" style="edgeLabel;html=1;align=center;verticalAlign=middle;resizable=0;points=[];strokeColor=#d6b656;fontFamily=Times New Roman;fontSize=17;fontColor=default;fillColor=#fff2cc;labelBackgroundColor=none;" vertex="1" connectable="0" parent="rOt2xWO_gpcYSJmfYHu1-2">
          <mxGeometry x="-0.368" relative="1" as="geometry">
            <mxPoint x="-42" y="-11" as="offset" />
          </mxGeometry>
        </mxCell>
        <mxCell id="e1xdWEfrCJZq1pd0oHmg-65" value="&lt;font style=&quot;font-size: 17px;&quot;&gt;Motion Controller&lt;/font&gt;" style="shape=parallelogram;perimeter=parallelogramPerimeter;whiteSpace=wrap;html=1;fixedSize=1;fillColor=#fff2cc;strokeColor=#d6b656;fontFamily=Times New Roman;fontSize=17;" parent="1" vertex="1">
          <mxGeometry x="759" y="296.25" width="160" height="70" as="geometry" />
        </mxCell>
        <mxCell id="e1xdWEfrCJZq1pd0oHmg-76" style="edgeStyle=orthogonalEdgeStyle;rounded=0;orthogonalLoop=1;jettySize=auto;html=1;entryX=1;entryY=0.5;entryDx=0;entryDy=0;" parent="1" source="e1xdWEfrCJZq1pd0oHmg-75" target="e1xdWEfrCJZq1pd0oHmg-65" edge="1">
          <mxGeometry relative="1" as="geometry" />
        </mxCell>
        <mxCell id="e1xdWEfrCJZq1pd0oHmg-87" value="&lt;font style=&quot;font-size: 16px;&quot;&gt;Commands&lt;/font&gt;" style="edgeLabel;html=1;align=center;verticalAlign=middle;resizable=0;points=[];fontFamily=Times New Roman;fontSize=16;" parent="e1xdWEfrCJZq1pd0oHmg-76" vertex="1" connectable="0">
          <mxGeometry x="-0.4321" y="1" relative="1" as="geometry">
            <mxPoint x="41" y="26" as="offset" />
          </mxGeometry>
        </mxCell>
        <mxCell id="e1xdWEfrCJZq1pd0oHmg-75" value="" style="sketch=0;pointerEvents=1;shadow=0;dashed=0;html=1;strokeColor=none;fillColor=#434445;aspect=fixed;labelPosition=center;verticalLabelPosition=bottom;verticalAlign=top;align=center;outlineConnect=0;shape=mxgraph.vvd.wi_fi;" parent="1" vertex="1">
          <mxGeometry x="964" y="316.25" width="30" height="30" as="geometry" />
        </mxCell>
        <mxCell id="e1xdWEfrCJZq1pd0oHmg-86" style="edgeStyle=orthogonalEdgeStyle;rounded=0;orthogonalLoop=1;jettySize=auto;html=1;" parent="1" source="e1xdWEfrCJZq1pd0oHmg-80" target="e1xdWEfrCJZq1pd0oHmg-75" edge="1">
          <mxGeometry relative="1" as="geometry" />
        </mxCell>
        <mxCell id="e1xdWEfrCJZq1pd0oHmg-80" value="&lt;font style=&quot;font-size: 16px;&quot; color=&quot;#000000&quot;&gt;Base Station&lt;/font&gt;" style="fontColor=#0066CC;verticalAlign=top;verticalLabelPosition=bottom;labelPosition=center;align=center;html=1;outlineConnect=0;fillColor=#CCCCCC;strokeColor=#6881B3;gradientColor=none;gradientDirection=north;strokeWidth=2;shape=mxgraph.networks.pc;fontFamily=Times New Roman;fontSize=16;" parent="1" vertex="1">
          <mxGeometry x="1029" y="290" width="110" height="82.5" as="geometry" />
        </mxCell>
        <mxCell id="e1xdWEfrCJZq1pd0oHmg-89" value="&lt;font style=&quot;font-size: 16px;&quot;&gt;RGBD Camera&lt;/font&gt;" style="points=[[0,0.5,0],[0.19,0.02,0],[0.59,0,0],[0.985,0.02,0],[1,0.5,0],[0.985,0.98,0],[0.59,1,0],[0.19,0.98,0]];verticalLabelPosition=bottom;sketch=0;html=1;verticalAlign=top;aspect=fixed;align=center;pointerEvents=1;shape=mxgraph.cisco19.camera;fillColor=#005073;strokeColor=none;direction=west;fontFamily=Times New Roman;fontSize=16;" parent="1" vertex="1">
          <mxGeometry x="216" y="260" width="90" height="50" as="geometry" />
        </mxCell>
        <mxCell id="rOt2xWO_gpcYSJmfYHu1-16" value="" style="rounded=0;whiteSpace=wrap;html=1;strokeColor=#b85450;align=center;verticalAlign=middle;fontFamily=Times New Roman;fontSize=17;fillColor=#f8cecc;" vertex="1" parent="1">
          <mxGeometry x="770" y="472" width="150" height="72" as="geometry" />
        </mxCell>
        <mxCell id="rOt2xWO_gpcYSJmfYHu1-18" value="&lt;font style=&quot;font-size: 17px;&quot;&gt;Foot Arc&amp;nbsp;&lt;/font&gt;&lt;div&gt;&lt;font style=&quot;font-size: 17px;&quot;&gt;Generation&lt;/font&gt;&lt;/div&gt;" style="shape=parallelogram;perimeter=parallelogramPerimeter;whiteSpace=wrap;html=1;fixedSize=1;fillColor=#fff2cc;strokeColor=#d6b656;fontFamily=Times New Roman;fontSize=17;" vertex="1" parent="1">
          <mxGeometry x="777.5" y="481.5" width="135" height="53" as="geometry" />
        </mxCell>
        <mxCell id="rOt2xWO_gpcYSJmfYHu1-4" style="edgeStyle=orthogonalEdgeStyle;rounded=0;orthogonalLoop=1;jettySize=auto;html=1;entryX=0.463;entryY=0.007;entryDx=0;entryDy=0;entryPerimeter=0;" edge="1" parent="1" target="rOt2xWO_gpcYSJmfYHu1-18">
          <mxGeometry relative="1" as="geometry">
            <mxPoint x="840" y="370" as="sourcePoint" />
            <mxPoint x="839.52" y="475" as="targetPoint" />
            <Array as="points">
              <mxPoint x="840" y="366" />
            </Array>
          </mxGeometry>
        </mxCell>
        <mxCell id="rOt2xWO_gpcYSJmfYHu1-14" value="Terrain&amp;nbsp; Optimised&lt;div&gt;Foot Targets&lt;/div&gt;" style="edgeLabel;html=1;align=center;verticalAlign=middle;resizable=0;points=[];strokeColor=#d6b656;fontFamily=Times New Roman;fontSize=17;fontColor=default;fillColor=#fff2cc;labelBackgroundColor=none;" vertex="1" connectable="0" parent="rOt2xWO_gpcYSJmfYHu1-4">
          <mxGeometry x="-0.2447" y="2" relative="1" as="geometry">
            <mxPoint x="-71" y="19" as="offset" />
          </mxGeometry>
        </mxCell>
        <mxCell id="e1xdWEfrCJZq1pd0oHmg-53" style="edgeStyle=orthogonalEdgeStyle;rounded=0;orthogonalLoop=1;jettySize=auto;html=1;entryX=1;entryY=0.5;entryDx=0;entryDy=0;exitX=0;exitY=0.5;exitDx=0;exitDy=0;" parent="1" source="rOt2xWO_gpcYSJmfYHu1-18" target="e1xdWEfrCJZq1pd0oHmg-52" edge="1">
          <mxGeometry relative="1" as="geometry">
            <mxPoint x="760" y="508" as="sourcePoint" />
            <Array as="points" />
          </mxGeometry>
        </mxCell>
        <mxCell id="e1xdWEfrCJZq1pd0oHmg-54" value="&lt;font style=&quot;font-size: 16px;&quot;&gt;Servo Commands&lt;/font&gt;" style="edgeLabel;html=1;align=center;verticalAlign=middle;resizable=0;points=[];fontFamily=Times New Roman;fontSize=16;" parent="e1xdWEfrCJZq1pd0oHmg-53" vertex="1" connectable="0">
          <mxGeometry x="0.1976" y="-3" relative="1" as="geometry">
            <mxPoint x="5" y="-11" as="offset" />
          </mxGeometry>
        </mxCell>
        <mxCell id="rOt2xWO_gpcYSJmfYHu1-19" value="Teensy 2.0" style="text;html=1;align=center;verticalAlign=middle;whiteSpace=wrap;rounded=0;fontFamily=Times New Roman;fontSize=17;fontColor=default;" vertex="1" parent="1">
          <mxGeometry x="797.5" y="544" width="95" height="30" as="geometry" />
        </mxCell>
      </root>
    </mxGraphModel>
  </diagram>
</mxfile>
